<svg xmlns="http://www.w3.org/2000/svg" viewBox="0 0 512 512">
  <!-- Dark background with subtle gradient -->
  <defs>
    <linearGradient id="bg" x1="0%" y1="0%" x2="100%" y2="100%">
      <stop offset="0%" style="stop-color:#1a1a1f"/>
      <stop offset="100%" style="stop-color:#0f0f13"/>
    </linearGradient>
    <linearGradient id="bar" x1="0%" y1="0%" x2="0%" y2="100%">
      <stop offset="0%" style="stop-color:#2a2a2f"/>
      <stop offset="100%" style="stop-color:#1a1a1f"/>
    </linearGradient>
  </defs>
  <rect width="512" height="512" rx="96" fill="url(#bg)"/>
  <!-- Gold border bars -->
  <rect x="88" y="148" width="240" height="30" rx="4" fill="#c9a84c" opacity="0.9"/>
  <rect x="92" y="152" width="232" height="22" rx="2" fill="url(#bar)"/>
  <rect x="88" y="208" width="336" height="30" rx="4" fill="#c9a84c" opacity="0.9"/>
  <rect x="92" y="212" width="328" height="22" rx="2" fill="url(#bar)"/>
  <rect x="88" y="268" width="240" height="30" rx="4" fill="#c9a84c" opacity="0.9"/>
  <rect x="92" y="272" width="232" height="22" rx="2" fill="url(#bar)"/>
  <rect x="88" y="328" width="336" height="30" rx="4" fill="#c9a84c" opacity="0.9"/>
  <rect x="92" y="332" width="328" height="22" rx="2" fill="url(#bar)"/>
  <!-- Gold circle indicator -->
  <circle cx="376" cy="163" r="52" fill="#c9a84c"/>
  <circle cx="376" cy="163" r="40" fill="#1a1510"/>
  <circle cx="376" cy="163" r="28" fill="#0f0f13"/>
</svg>
